<svg width="126" height="126" viewBox="0 0 126 126" fill="none" xmlns="http://www.w3.org/2000/svg">
<path d="M62.9972 94.5C64.4691 94.5 65.7038 94.0022 66.7012 93.0066C67.6987 92.0109 68.1975 90.7771 68.1975 89.3053C68.1975 87.8334 67.6997 86.5987 66.7041 85.6012C65.7084 84.6038 64.4746 84.105 63.0028 84.105C61.5309 84.105 60.2962 84.6028 59.2987 85.5984C58.3013 86.5941 57.8025 87.8279 57.8025 89.2997C57.8025 90.7716 58.3003 92.0062 59.2959 93.0037C60.2916 94.0013 61.5254 94.5 62.9972 94.5ZM58.7475 70.4025H68.1975V30.555H58.7475V70.4025ZM63.0419 126C54.3548 126 46.1911 124.346 38.5506 121.039C30.9102 117.731 24.2288 113.216 18.5063 107.494C12.7838 101.771 8.26875 95.0858 4.96125 87.4375C1.65375 79.7893 0 71.6172 0 62.9212C0 54.2253 1.65375 46.0532 4.96125 38.405C8.26875 30.7567 12.7838 24.0975 18.5063 18.4275C24.2288 12.7575 30.9142 8.26875 38.5625 4.96125C46.2107 1.65375 54.3828 0 63.0788 0C71.7747 0 79.9468 1.65375 87.595 4.96125C95.2433 8.26875 101.902 12.7575 107.573 18.4275C113.243 24.0975 117.731 30.765 121.039 38.43C124.346 46.095 126 54.271 126 62.9581C126 71.6452 124.346 79.8089 121.039 87.4494C117.731 95.0898 113.243 101.762 107.573 107.465C101.902 113.168 95.235 117.683 87.57 121.01C79.905 124.337 71.729 126 63.0419 126ZM63.0788 116.55C77.9362 116.55 90.5625 111.326 100.957 100.879C111.353 90.4313 116.55 77.7787 116.55 62.9212C116.55 48.0637 111.362 35.4375 100.987 25.0425C90.6117 14.6475 77.9494 9.45 63 9.45C48.195 9.45 35.5687 14.6376 25.1213 25.0129C14.6737 35.3883 9.45 48.0506 9.45 63C9.45 77.805 14.6737 90.4313 25.1213 100.879C35.5687 111.326 48.2212 116.55 63.0788 116.55Z" fill="#CD151E"/>
</svg>
