<svg width="22" height="22" viewBox="0 0 22 22" fill="none" xmlns="http://www.w3.org/2000/svg">
<path d="M20.625 22C18.1398 22 15.6699 21.3889 13.2153 20.1667C10.7606 18.9444 8.55556 17.3556 6.6 15.4C4.64444 13.4444 3.05556 11.2394 1.83333 8.78472C0.611111 6.33009 0 3.86019 0 1.375C0 0.982137 0.130951 0.654754 0.392853 0.392853C0.654754 0.130951 0.982137 0 1.375 0H5.65278C5.93004 0 6.1776 0.0967593 6.39546 0.290278C6.6133 0.483796 6.75278 0.743519 6.81389 1.06944L7.63889 4.91944C7.67963 5.20463 7.67454 5.46435 7.62361 5.69861C7.57269 5.93287 7.46574 6.13148 7.30278 6.29444L4.24722 9.38056C5.38796 11.275 6.6662 12.925 8.08194 14.3306C9.49769 15.7361 11.1019 16.9278 12.8944 17.9056L15.7972 14.9111C16.0009 14.687 16.2352 14.5292 16.5 14.4375C16.7648 14.3458 17.0296 14.3306 17.2944 14.3917L20.9306 15.1861C21.2425 15.2549 21.4987 15.4096 21.6992 15.6502C21.8997 15.8908 22 16.1741 22 16.5V20.625C22 21.0179 21.869 21.3452 21.6071 21.6071C21.3452 21.869 21.0179 22 20.625 22ZM3.33056 7.7L5.80556 5.19444L5.10278 1.83333H1.83333C1.83333 2.62778 1.95556 3.49861 2.2 4.44583C2.44444 5.39306 2.8213 6.47778 3.33056 7.7ZM14.6056 18.7917C15.4407 19.1787 16.3472 19.4944 17.325 19.7389C18.3028 19.9833 19.25 20.1259 20.1667 20.1667V16.8972L17.0194 16.2556L14.6056 18.7917Z" fill="#8D8D8D"/>
</svg>
