<svg width="117" height="117" viewBox="0 0 117 117" fill="none" xmlns="http://www.w3.org/2000/svg">
<path d="M49.8712 85.1175L91.26 43.7287L84.5325 37.1475L49.8712 71.8087L32.3212 54.2587L25.74 60.84L49.8712 85.1175ZM58.5 117C50.505 117 42.9487 115.464 35.8312 112.393C28.7137 109.322 22.4981 105.129 17.1844 99.8156C11.8706 94.5019 7.67812 88.2862 4.60687 81.1687C1.53562 74.0512 0 66.495 0 58.5C0 50.4075 1.53562 42.8025 4.60687 35.685C7.67812 28.5675 11.8706 22.3762 17.1844 17.1112C22.4981 11.8462 28.7137 7.67812 35.8312 4.60687C42.9487 1.53562 50.505 0 58.5 0C66.5925 0 74.1975 1.53562 81.315 4.60687C88.4325 7.67812 94.6237 11.8462 99.8887 17.1112C105.154 22.3762 109.322 28.5675 112.393 35.685C115.464 42.8025 117 50.4075 117 58.5C117 66.495 115.464 74.0512 112.393 81.1687C109.322 88.2862 105.154 94.5019 99.8887 99.8156C94.6237 105.129 88.4325 109.322 81.315 112.393C74.1975 115.464 66.5925 117 58.5 117ZM58.5 108.225C72.345 108.225 84.0938 103.374 93.7462 93.6731C103.399 83.9719 108.225 72.2475 108.225 58.5C108.225 44.655 103.399 32.9062 93.7462 23.2537C84.0938 13.6012 72.345 8.775 58.5 8.775C44.7525 8.775 33.0281 13.6012 23.3269 23.2537C13.6256 32.9062 8.775 44.655 8.775 58.5C8.775 72.2475 13.6256 83.9719 23.3269 93.6731C33.0281 103.374 44.7525 108.225 58.5 108.225Z" fill="#00D857"/>
</svg>
