<svg width="21" height="21" viewBox="0 0 21 21" fill="none" xmlns="http://www.w3.org/2000/svg">
<path d="M10.3371 15.5828C10.5762 15.5828 10.7768 15.5019 10.9388 15.3402C11.1008 15.1784 11.1818 14.978 11.1818 14.739C11.1818 14.4999 11.101 14.2994 10.9393 14.1373C10.7775 13.9753 10.5771 13.8943 10.3381 13.8943C10.099 13.8943 9.89843 13.9752 9.73641 14.1369C9.57438 14.2986 9.49337 14.499 9.49337 14.7381C9.49337 14.9771 9.57423 15.1777 9.73595 15.3397C9.89768 15.5017 10.0981 15.5828 10.3371 15.5828ZM9.64687 11.6686H11.1818V5.19615H9.64687V11.6686ZM10.3444 20.6993C8.93336 20.6993 7.60732 20.4307 6.36628 19.8935C5.12525 19.3562 4.03998 18.6228 3.11047 17.6933C2.18096 16.7638 1.44759 15.6779 0.910349 14.4356C0.373111 13.1933 0.104492 11.8659 0.104492 10.4534C0.104492 9.04092 0.373111 7.71352 0.910349 6.47122C1.44759 5.22891 2.18096 4.14726 3.11047 3.22628C4.03998 2.3053 5.12589 1.57619 6.3682 1.03895C7.6105 0.501712 8.9379 0.233093 10.3504 0.233093C11.7629 0.233093 13.0903 0.501712 14.3326 1.03895C15.5749 1.57619 16.6565 2.3053 17.5775 3.22628C18.4985 4.14726 19.2276 5.23026 19.7649 6.47529C20.3021 7.72032 20.5707 9.04835 20.5707 10.4594C20.5707 11.8704 20.3021 13.1965 19.7649 14.4375C19.2276 15.6786 18.4985 16.7623 17.5775 17.6886C16.6565 18.615 15.5735 19.3484 14.3285 19.8887C13.0835 20.4291 11.7554 20.6993 10.3444 20.6993ZM10.3504 19.1643C12.7637 19.1643 14.8146 18.3158 16.503 16.6189C18.1915 14.9219 19.0357 12.8667 19.0357 10.4534C19.0357 8.0401 18.1931 5.98922 16.5079 4.30075C14.8226 2.61229 12.7658 1.76806 10.3376 1.76806C7.93282 1.76806 5.88193 2.61069 4.18494 4.29594C2.48795 5.98122 1.63946 8.03797 1.63946 10.4662C1.63946 12.871 2.48795 14.9219 4.18494 16.6189C5.88193 18.3158 7.93708 19.1643 10.3504 19.1643Z" fill="#CD151E"/>
</svg>
