<svg width="31" height="39" viewBox="0 0 31 39" fill="none" xmlns="http://www.w3.org/2000/svg">
<path d="M3.1582 38.4375C2.39282 38.4375 1.73761 38.1752 1.19257 37.6507C0.647522 37.1261 0.375 36.4955 0.375 35.7589V16.3839C0.375 15.6473 0.647522 15.0167 1.19257 14.4922C1.73761 13.9676 2.39282 13.7054 3.1582 13.7054H6.40527V9.41964C6.40527 7.07292 7.26507 5.07254 8.98465 3.41853C10.7042 1.76451 12.7839 0.9375 15.2237 0.9375C17.6634 0.9375 19.7415 1.76451 21.4578 3.41853C23.1741 5.07254 24.0322 7.07292 24.0322 9.41964V13.7054H27.2793C28.0447 13.7054 28.6999 13.9676 29.2449 14.4922C29.79 15.0167 30.0625 15.6473 30.0625 16.3839V35.7589C30.0625 36.4955 29.79 37.1261 29.2449 37.6507C28.6999 38.1752 28.0447 38.4375 27.2793 38.4375H3.1582ZM3.1582 35.7589H27.2793V16.3839H3.1582V35.7589ZM15.2265 29.5089C16.2109 29.5089 17.051 29.1811 17.7468 28.5254C18.4426 27.8697 18.7905 27.0815 18.7905 26.1607C18.7905 25.2679 18.44 24.4568 17.739 23.7277C17.038 22.9985 16.1953 22.6339 15.211 22.6339C14.2266 22.6339 13.3865 22.9985 12.6907 23.7277C11.9949 24.4568 11.647 25.2753 11.647 26.183C11.647 27.0908 11.9975 27.872 12.6985 28.5268C13.3995 29.1815 14.2422 29.5089 15.2265 29.5089ZM9.18848 13.7054H21.249V9.41964C21.249 7.80753 20.6633 6.43725 19.4918 5.30879C18.3203 4.18031 16.8978 3.61607 15.2242 3.61607C13.5507 3.61607 12.1263 4.18031 10.9512 5.30879C9.77604 6.43725 9.18848 7.80753 9.18848 9.41964V13.7054Z" fill="#8D8D8D"/>
</svg>
